<?xml version="1.0" encoding="UTF-8"?>
<svg version="1.1" xmlns="http://www.w3.org/2000/svg" width="500" height="500">
<path d="M0 0 C165 0 330 0 500 0 C500 165 500 330 500 500 C335 500 170 500 0 500 C0 335 0 170 0 0 Z " fill="#000000" transform="translate(0,0)"/>
<path d="M0 0 C1.19567848 -0.00574036 1.19567848 -0.00574036 2.41551208 -0.01159668 C4.09041619 -0.01430341 5.76536346 -0.00702943 7.44018555 0.00976562 C9.99298813 0.03122389 12.54298616 0.00990954 15.09570312 -0.015625 C16.73047491 -0.01298205 18.36524496 -0.00785776 20 0 C20.75640274 -0.00809692 21.51280548 -0.01619385 22.29212952 -0.02453613 C27.43774213 0.06586001 30.32467535 1.19229868 34.43359375 4.53125 C38.25964998 8.77093393 39.55909497 11.74894081 39.55664158 17.41381359 C39.55863263 18.42648806 39.56062368 19.43916252 39.56267506 20.4825241 C39.5583058 22.1561424 39.5583058 22.1561424 39.55384827 23.86357117 C39.55470269 25.04628107 39.55555712 26.22899098 39.55643743 27.44754058 C39.5578026 30.73583945 39.5546665 34.02407916 39.54965937 37.3123709 C39.54534941 40.85631856 39.54680168 44.40026432 39.54756165 47.94421387 C39.54808653 54.08616763 39.5449434 60.22811078 39.53932381 66.37006187 C39.53120406 75.25034146 39.5285931 84.13061591 39.52733582 93.01089881 C39.52514605 107.41783193 39.51848798 121.8247594 39.5090332 136.23168945 C39.49985715 150.22843396 39.49277726 164.22517693 39.48852539 178.22192383 C39.48826267 179.08437738 39.48799994 179.94683093 39.48772926 180.83541944 C39.48642424 185.16200412 39.48516053 189.48858881 39.48391736 193.81517351 C39.47354708 229.72053633 39.45593079 265.62589273 39.43359375 301.53125 C38.81613281 300.75265625 38.19867188 299.9740625 37.5625 299.171875 C33.74640771 294.32492916 33.74640771 294.32492916 28.43359375 291.53125 C25.6272849 291.39821044 22.84663493 291.31899387 20.0390625 291.29296875 C19.21408768 291.284897 18.38911285 291.27682526 17.53913879 291.26850891 C15.79328503 291.25468427 14.04740443 291.24395487 12.30151367 291.23608398 C9.64123908 291.21888028 6.98221067 291.17498227 4.32226562 291.13085938 C2.62370703 291.12073096 0.9251379 291.11221532 -0.7734375 291.10546875 C-1.95967461 291.07920662 -1.95967461 291.07920662 -3.1698761 291.05241394 C-8.44262694 291.07296379 -11.4102164 292.01308658 -15.56640625 295.53125 C-16.92037648 297.18119551 -18.25696378 298.8457483 -19.56640625 300.53125 C-19.65795395 263.83353503 -19.72844099 227.13583725 -19.77066757 190.43803119 C-19.77567042 186.10590407 -19.7808477 181.77377718 -19.78613281 177.44165039 C-19.78718205 176.57919889 -19.7882313 175.7167474 -19.78931233 174.82816101 C-19.80671941 160.8619246 -19.83825877 146.89575401 -19.87501743 132.92955666 C-19.91241843 118.59983972 -19.93464032 104.27015726 -19.94276023 89.94039351 C-19.94824975 81.09754217 -19.96559032 72.25487692 -19.99807212 63.41208286 C-20.01920962 57.34893121 -20.02560803 51.28587581 -20.02041176 45.22268998 C-20.01784877 41.72405977 -20.02178825 38.22575482 -20.04322815 34.72718239 C-20.06309118 30.93272399 -20.05835769 27.13906564 -20.04742432 23.34458923 C-20.05907568 22.24049507 -20.07072705 21.1364009 -20.08273149 19.99884933 C-20.03298324 13.62344168 -19.41373597 9.69198403 -15.56640625 4.53125 C-10.69007581 0.55708485 -6.1529347 -0.06604091 0 0 Z " fill="#FCCC6C" transform="translate(172.56640625,95.46875)"/>
<path d="M0 0 C0.7701796 -0.00619858 1.54035919 -0.01239716 2.33387756 -0.01878357 C3.95328517 -0.02584725 5.57276592 -0.02276836 7.19213867 -0.01000977 C9.65095519 0.00385437 12.10595724 -0.0302565 14.56445312 -0.06835938 C28.68408299 -0.14073458 28.68408299 -0.14073458 34.31469727 4.00415039 C39.44410502 9.69568502 39.14134115 14.78238084 39.0834198 22.13923645 C39.08598307 23.32365521 39.08854635 24.50807396 39.0911873 25.7283842 C39.09527393 29.01227471 39.08590003 32.29580989 39.07085311 35.57965839 C39.05789681 39.1222074 39.06228192 42.66473987 39.06455994 46.20730591 C39.06613293 52.34380327 39.05672103 58.48020494 39.03984642 64.61667824 C39.01546449 73.48897069 39.00765198 82.36121687 39.00388245 91.23353919 C38.9973167 105.62829389 38.97735217 120.0229976 38.94897461 134.41772461 C38.92143724 148.40079493 38.90020208 162.3838514 38.88745117 176.36694336 C38.886663 177.22887146 38.88587483 178.09079957 38.88506278 178.97884671 C38.88114766 183.30289004 38.87735654 187.62693347 38.87362707 191.95097697 C38.84252731 227.82282274 38.78968813 263.69461052 38.72265625 299.56640625 C37.9445459 298.77827545 37.16643555 297.99014465 36.36474609 297.1781311 C31.86719438 292.73226882 28.92171273 291.2312767 22.49072266 291.14956665 C21.70101074 291.15563934 20.91129883 291.16171204 20.09765625 291.16796875 C18.86088135 291.16366348 18.86088135 291.16366348 17.59912109 291.15927124 C15.86099559 291.15723553 14.12284692 291.16273085 12.38476562 291.17529297 C9.73124746 291.19135425 7.0792523 291.17542816 4.42578125 291.15625 C2.73306957 291.15823252 1.04035883 291.16207638 -0.65234375 291.16796875 C-1.44205566 291.16189606 -2.23176758 291.15582336 -3.04541016 291.14956665 C-7.68829282 291.2085576 -10.49197123 291.88953116 -14.27734375 294.56640625 C-14.93734375 294.56640625 -15.59734375 294.56640625 -16.27734375 294.56640625 C-16.93734375 296.21640625 -17.59734375 297.86640625 -18.27734375 299.56640625 C-18.60734375 299.56640625 -18.93734375 299.56640625 -19.27734375 299.56640625 C-19.36887683 262.85166948 -19.43937105 226.13694988 -19.48160507 189.42212211 C-19.48660796 185.08870622 -19.49178524 180.75529056 -19.49707031 176.421875 C-19.49811955 175.55916119 -19.4991688 174.69644739 -19.50024983 173.80759074 C-19.51766039 159.83421227 -19.54920165 145.86089956 -19.58595493 131.88756011 C-19.62334627 117.55219793 -19.64557577 103.21687021 -19.65369773 88.88146126 C-19.65918926 80.03400071 -19.6765407 71.186726 -19.70900962 62.33932264 C-19.7301352 56.27430934 -19.73654824 50.20939228 -19.73134926 44.14434485 C-19.7287844 40.64381342 -19.73274691 37.14360698 -19.75416565 33.64313316 C-19.77400455 29.84832451 -19.76930408 26.05431735 -19.75836182 22.25949097 C-19.77001318 21.15248396 -19.78166455 20.04547695 -19.79366899 18.90492427 C-19.74602722 12.81137949 -19.41405403 9.16674738 -15.27734375 4.56640625 C-10.11892625 0.83306928 -6.27732384 -0.04287165 0 0 Z " fill="#FECD6C" transform="translate(308.27734375,95.43359375)"/>
<path d="M0 0 C44.17126719 -1.02130098 44.17126719 -1.02130098 60.4765625 14.25 C66.0586608 20.66225651 69.02810788 27.83394961 71 36 C71.26719849 37.05622559 71.26719849 37.05622559 71.53979492 38.13378906 C73.72606372 48.21120466 73.42590452 58.55087065 73.5625 68.8125 C72.3361264 98.24098368 72.3361264 98.24098368 84.53515625 123.70703125 C91.11439181 129.51430317 98.45374652 130.05041628 107 131 C107 143.54 107 156.08 107 169 C103.37 169.33 99.74 169.66 96 170 C88.13790818 172.92308542 82.60893237 175.90125131 78.8125 183.6875 C78.32394531 184.66074219 77.83539063 185.63398438 77.33203125 186.63671875 C74.36062506 194.13930154 73.71019431 201.3747405 73.69140625 209.38671875 C73.66620563 211.39909093 73.64080833 213.41146065 73.61523438 215.42382812 C73.58682611 218.5339263 73.56276678 221.64398091 73.54370117 224.75415039 C73.4619974 235.95115858 73.11685038 246.97934784 71.63671875 258.08984375 C71.51905655 258.98757004 71.40139435 259.88529633 71.28016663 260.81022644 C69.56220965 272.53670656 64.16780723 282.2262984 54.87109375 289.71484375 C39.00848443 300.99798673 18.5229788 299.22051165 0 299 C0 286.79 0 274.58 0 262 C5.61 261.67 11.22 261.34 17 261 C22.10689902 259.60720936 25.80041802 258.30712959 29 254 C30.87773278 249.38970762 31.30689018 245.1629909 31.34375 240.2421875 C31.37229922 238.72322563 31.40086427 237.20426405 31.42944336 235.68530273 C31.44071259 234.89888397 31.45198181 234.11246521 31.46359253 233.30221558 C31.67133071 219.45271322 32.1419936 205.74092791 34 192 C34.13148438 190.93910156 34.26296875 189.87820313 34.3984375 188.78515625 C36.91154931 171.88092302 46.56107736 159.07919198 60 149 C59.48050781 148.62488281 58.96101563 148.24976563 58.42578125 147.86328125 C54.2857428 144.82521237 50.50288896 141.77943282 47 138 C46.50628906 137.49984375 46.01257813 136.9996875 45.50390625 136.484375 C35.75309145 126.07702155 33.7332169 110.44510524 32.875 96.75 C32.79427246 95.61264404 32.71354492 94.47528809 32.63037109 93.3034668 C32.19120996 86.67267029 31.92646243 80.05274284 31.796875 73.41015625 C31.78129547 72.69268219 31.76571594 71.97520813 31.74966431 71.23599243 C31.67495955 67.72754233 31.6209401 64.22112974 31.60498047 60.71191406 C31.48089386 53.4082684 31.1824409 48.10935118 27 42 C19.7719617 37.06244478 7.29218839 38.40512158 0 38 C0 25.46 0 12.92 0 0 Z " fill="#7CD656" transform="translate(378,105)"/>
<path d="M0 0 C1.11947021 0.00249756 2.23894043 0.00499512 3.39233398 0.00756836 C4.79040283 0.01667236 6.18847168 0.02577637 7.62890625 0.03515625 C12.10453125 0.05578125 16.58015625 0.07640625 21.19140625 0.09765625 C21.19140625 12.30765625 21.19140625 24.51765625 21.19140625 37.09765625 C13.27140625 37.59265625 13.27140625 37.59265625 5.19140625 38.09765625 C-2.1362585 39.43095403 -2.1362585 39.43095403 -7.37109375 44.09765625 C-9.6002659 48.74984161 -9.96139699 52.17416041 -10.0546875 57.30859375 C-10.08609525 58.78613988 -10.11784706 60.26367872 -10.14990234 61.74121094 C-10.17295441 62.90058167 -10.17295441 62.90058167 -10.19647217 64.08337402 C-10.48849437 78.14426118 -10.89284042 92.14679907 -12.80859375 106.09765625 C-12.90366211 106.79713379 -12.99873047 107.49661133 -13.09667969 108.21728516 C-15.23648233 122.98893913 -21.01317624 135.34523085 -32.90625 144.7578125 C-34.52283773 145.89639483 -36.16337853 147.0008461 -37.80859375 148.09765625 C-38.13859375 148.75765625 -38.46859375 149.41765625 -38.80859375 150.09765625 C-38.12796875 150.30390625 -37.44734375 150.51015625 -36.74609375 150.72265625 C-28.90235814 154.39419207 -24.32406102 160.92470699 -19.80859375 168.09765625 C-19.40511719 168.72285156 -19.00164062 169.34804688 -18.5859375 169.9921875 C-10.47497517 184.14782138 -10.89404164 205.10441893 -10.60546875 220.9453125 C-10.58988922 221.72206329 -10.57430969 222.49881409 -10.55825806 223.29910278 C-10.48236473 227.20466674 -10.42936496 231.1083758 -10.41357422 235.01464844 C-10.31986332 243.4899296 -10.09378837 250.3363289 -4.12109375 256.97265625 C3.73728613 260.79565187 12.6343313 260.48643661 21.19140625 261.09765625 C21.19140625 273.30765625 21.19140625 285.51765625 21.19140625 298.09765625 C-23.0865756 298.95742289 -23.0865756 298.95742289 -40.18359375 283.28515625 C-46.96296251 275.94254407 -49.59871775 267.89029848 -50.55859375 258.09765625 C-50.67654297 257.01967773 -50.79449219 255.94169922 -50.91601562 254.83105469 C-52.16993056 241.91289715 -52.26882157 228.91587869 -52.34277344 215.9453125 C-52.4716068 202.05138459 -52.86829616 187.58024219 -62.05859375 176.34765625 C-69.04419493 170.63216438 -75.75395345 169.36131633 -84.80859375 167.09765625 C-84.80859375 155.21765625 -84.80859375 143.33765625 -84.80859375 131.09765625 C-79.19859375 129.44765625 -73.58859375 127.79765625 -67.80859375 126.09765625 C-57.8508441 118.98497793 -55.58759766 112.24325699 -53.43310547 100.4765625 C-52.16180236 92.48395684 -52.3049202 84.35813123 -52.24609375 76.28515625 C-51.78473757 27.34878021 -51.78473757 27.34878021 -39.4609375 13.6015625 C-28.59268207 3.70965153 -14.43420766 -0.06651709 0 0 Z " fill="#7CD756" transform="translate(100.80859375,105.90234375)"/>
<path d="M0 0 C0.79379059 -0.00761353 1.58758118 -0.01522705 2.40542603 -0.02307129 C4.07786937 -0.03383276 5.75037969 -0.03674153 7.42285156 -0.03222656 C9.96274581 -0.03125528 12.49960448 -0.07289463 15.0390625 -0.1171875 C29.62794083 -0.22941794 29.62794083 -0.22941794 35.21337891 3.80664062 C39.62190273 9.0850842 40.03096554 13.94841647 39.96232605 20.50436401 C39.96488932 21.40378853 39.9674526 22.30321305 39.97009355 23.22989285 C39.97502741 26.23791803 39.95854492 29.24543917 39.94213867 32.25341797 C39.94129231 34.41191089 39.94176771 36.57040468 39.94346619 38.72889709 C39.94432722 44.58586868 39.92668372 50.44265609 39.90574431 56.29958487 C39.88699571 62.421485 39.8852285 68.54338931 39.88166809 74.66531372 C39.87234231 86.25680074 39.84772123 97.84820291 39.81761962 109.43965256 C39.78409228 122.63662663 39.76759378 135.83360475 39.75253332 149.0306108 C39.7211722 176.17670424 39.66840126 203.32272237 39.6015625 230.46875 C35.6015625 225.71875 35.6015625 225.71875 35.6015625 223.46875 C34.8178125 223.159375 34.0340625 222.85 33.2265625 222.53125 C30.6015625 221.46875 30.6015625 221.46875 28.6015625 220.46875 C26.03404447 220.3335193 23.49490573 220.25612938 20.92578125 220.23046875 C20.16360794 220.222397 19.40143463 220.21432526 18.61616516 220.20600891 C17.00137607 220.19217025 15.38655776 220.18144711 13.77172852 220.17358398 C11.30883917 220.15638808 8.84729844 220.11250493 6.38476562 220.06835938 C4.81511403 220.05823065 3.24545103 220.04971511 1.67578125 220.04296875 C0.57552864 220.01670662 0.57552864 220.01670662 -0.54695129 219.98991394 C-4.18282996 220.0052434 -6.21065203 220.34766446 -9.29492188 222.33642578 C-11.55691193 224.62939481 -13.03387619 226.83923791 -14.5859375 229.65625 C-17.20188228 234.37047239 -17.20188228 234.37047239 -19.3984375 235.46875 C-19.51523355 206.40099322 -19.6034076 177.33327161 -19.65749836 148.26532745 C-19.66259759 145.57857748 -19.66780419 142.89182773 -19.6730957 140.20507812 C-19.67440726 139.5372789 -19.67571881 138.86947967 -19.6770701 138.18144411 C-19.69881458 127.37474564 -19.73823075 116.56818044 -19.78420148 105.76156098 C-19.83099292 94.66933454 -19.85836441 83.57716241 -19.86887997 72.48483992 C-19.87539889 66.25591938 -19.89072233 60.02730091 -19.92708778 53.79847717 C-19.96104429 47.93471728 -19.97149091 42.07138367 -19.96397591 36.20753479 C-19.96535058 34.05649499 -19.97528476 31.90544081 -19.99446487 29.75448608 C-20.01939713 26.81403337 -20.0133416 23.87518333 -19.99971008 20.93469238 C-20.01427429 20.0864227 -20.0288385 19.23815301 -20.04384404 18.36417818 C-19.96811314 12.30730666 -18.29937504 8.13786343 -14.3984375 3.46875 C-9.83333508 0.24143289 -5.43993733 0.00145459 0 0 Z " fill="#F4F4E7" transform="translate(241.3984375,162.53125)"/>
</svg>
